<?xml version="1.0" encoding="UTF-8"?>
<svg xmlns="http://www.w3.org/2000/svg" xmlns:xlink="http://www.w3.org/1999/xlink" width="45px" height="45px" viewBox="0 0 45 45" version="1.1">
<g id="surface1">
<path style=" stroke:none;fill-rule:nonzero;fill:rgb(100%,0%,0%);fill-opacity:1;" d="M 21.128906 9.582031 C 19.753906 9.722656 18.183594 10.171875 16.933594 10.777344 C 15.550781 11.449219 14.527344 12.160156 13.445312 13.21875 C 12.296875 14.34375 11.585938 15.320312 10.867188 16.761719 C 8.621094 21.261719 9.210938 26.609375 12.367188 30.621094 C 12.882812 31.273438 14.039062 32.390625 14.722656 32.886719 C 18.671875 35.796875 23.78125 36.300781 28.09375 34.203125 C 29.507812 33.523438 30.433594 32.871094 31.554688 31.78125 C 32.703125 30.664062 33.414062 29.679688 34.132812 28.238281 C 36.378906 23.738281 35.789062 18.390625 32.632812 14.378906 C 32.152344 13.773438 30.992188 12.636719 30.351562 12.152344 C 27.746094 10.179688 24.378906 9.246094 21.128906 9.582031 Z M 23.222656 11.910156 C 28.542969 12.296875 32.714844 16.460938 33.089844 21.757812 C 33.398438 26.113281 30.992188 30.230469 27.046875 32.097656 C 21.78125 34.585938 15.425781 32.34375 12.929688 27.109375 C 10.425781 21.847656 12.566406 15.601562 17.773438 12.984375 C 18.910156 12.417969 20.398438 12.003906 21.664062 11.914062 C 22.007812 11.882812 22.332031 11.859375 22.378906 11.859375 C 22.429688 11.855469 22.8125 11.878906 23.222656 11.910156 Z M 23.222656 11.910156 "/>
<path style=" stroke:none;fill-rule:nonzero;fill:rgb(100%,0%,0%);fill-opacity:1;" d="M 17.683594 21.394531 C 17.1875 21.566406 16.816406 22.183594 16.90625 22.671875 C 16.988281 23.121094 17.339844 23.515625 17.753906 23.632812 C 18.078125 23.722656 26.933594 23.722656 27.257812 23.632812 C 27.773438 23.488281 28.191406 22.835938 28.09375 22.328125 C 28.011719 21.878906 27.660156 21.484375 27.246094 21.367188 C 27.097656 21.328125 25.46875 21.304688 22.46875 21.304688 C 18.707031 21.308594 17.878906 21.320312 17.683594 21.394531 Z M 17.683594 21.394531 "/>
</g>
</svg>
